<svg width="40" height="40" viewBox="0 0 40 40" fill="none" xmlns="http://www.w3.org/2000/svg">
<rect width="40" height="40" rx="20" fill="#F26F68"/>
<path d="M20 12.53C15.875 12.53 12.5 15.8975 12.5 20.045C12.5 23.795 15.245 26.9075 18.83 27.47V22.22H16.925V20.045H18.83V18.3875C18.83 16.505 19.9475 15.47 21.665 15.47C22.4825 15.47 23.3375 15.6125 23.3375 15.6125V17.465H22.3925C21.4625 17.465 21.17 18.0425 21.17 18.635V20.045H23.255L22.9175 22.22H21.17V27.47C22.9373 27.1909 24.5467 26.2892 25.7074 24.9276C26.8682 23.566 27.504 21.8343 27.5 20.045C27.5 15.8975 24.125 12.53 20 12.53Z" fill="white"/>
</svg>
