<svg width="61" height="22" viewBox="0 0 61 22" fill="none" xmlns="http://www.w3.org/2000/svg">
<path d="M53.3393 14.7539C44.233 14.9498 35.7142 18.8665 26.6079 19.356C23.9641 19.454 21.3203 19.1602 19.2641 17.9852C22.9849 17.2999 26.5099 16.027 29.1537 13.5789C31.9935 11.0332 32.2871 6.3332 30.5246 3.00401C28.86 -0.12934 24.6495 -0.227257 21.712 0.556082C14.7597 2.22052 10.0598 10.5435 13.9764 16.4184C9.668 16.7121 5.35963 16.4184 1.14919 16.6144C0.26793 16.7121 0.26793 17.985 1.2471 17.985C5.55547 18.2788 10.7451 18.6705 15.8368 18.3767C16.1305 18.5727 16.4243 18.8665 16.718 19.0621C27.0973 26.308 42.2745 17.2017 53.4371 16.908C54.71 16.81 54.71 14.656 53.3393 14.7539ZM14.8576 12.4038C13.7805 8.38931 17.3056 4.9622 20.5368 3.29745C23.7681 1.63285 28.3702 1.63285 29.4473 5.8433C30.7202 10.7392 26.5098 13.6765 22.4952 14.9496C20.6347 15.5371 18.8722 15.9288 17.0118 16.1246C15.9349 15.1454 15.2494 13.9704 14.8576 12.4038Z" fill="#CE2029"/>
<path d="M59.9992 14.8492C58.6286 13.968 57.3556 13.0867 56.0827 12.2056C55.0056 11.4223 53.9285 10.541 52.6556 10.2473C51.6764 9.95352 50.6973 11.4223 51.5785 12.1075C52.6556 12.8909 53.8306 13.5763 54.9079 14.2617C55.6912 14.7515 56.4745 15.3388 57.1598 15.8284C56.3765 16.2201 55.5931 16.5138 54.8098 16.9055C54.2223 17.1992 53.5369 17.493 52.9493 17.7867C52.7535 17.8847 52.5577 18.0805 52.4596 18.2763C52.1658 18.668 52.3618 18.4723 52.4596 18.3743C52.0681 18.668 52.0681 19.6472 52.7535 19.5493C52.9493 19.6472 53.145 19.6472 53.4388 19.6472C54.1242 19.4513 54.9077 19.1576 55.593 18.8638C57.0619 18.2762 58.5305 17.6887 59.9015 16.9055C60.6847 16.3181 60.6847 15.2409 59.9992 14.8492Z" fill="#CE2029"/>
</svg>
