<svg width="16" height="13" viewBox="0 0 16 13" fill="none" xmlns="http://www.w3.org/2000/svg">
<path d="M15.8448 1.5C15.2673 1.7625 14.6448 1.935 13.9998 2.0175C14.6598 1.62 15.1698 0.99 15.4098 0.2325C14.7873 0.6075 14.0973 0.87 13.3698 1.02C12.7773 0.375 11.9448 0 10.9998 0C9.23728 0 7.79728 1.44 7.79728 3.2175C7.79728 3.4725 7.82728 3.72 7.87978 3.9525C5.20978 3.8175 2.83228 2.535 1.24979 0.5925C0.972285 1.065 0.814785 1.62 0.814785 2.205C0.814785 3.3225 1.37729 4.3125 2.24728 4.875C1.71478 4.875 1.21979 4.725 0.784785 4.5C0.784785 4.5 0.784785 4.5 0.784785 4.5225C0.784785 6.0825 1.89479 7.3875 3.36478 7.68C3.09478 7.755 2.80978 7.7925 2.51729 7.7925C2.31479 7.7925 2.11229 7.77 1.91729 7.7325C2.32229 9 3.49978 9.945 4.91728 9.9675C3.82228 10.8375 2.43478 11.3475 0.919785 11.3475C0.664785 11.3475 0.409785 11.3325 0.154785 11.3025C1.57978 12.2175 3.27478 12.75 5.08978 12.75C10.9998 12.75 14.2473 7.845 14.2473 3.5925C14.2473 3.45 14.2473 3.315 14.2398 3.1725C14.8698 2.7225 15.4098 2.1525 15.8448 1.5Z" fill="#424242"/>
</svg>
