<svg width="91" height="24" viewBox="0 0 91 24" fill="none" xmlns="http://www.w3.org/2000/svg">
<path d="M75.9891 8.50138L82.1362 14.6485C82.267 14.7793 82.3324 14.9755 82.3324 15.1717V22.6267C82.3324 23.3461 81.7439 24 80.9591 24H75.9237C75.2044 24 74.5504 23.4115 74.5504 22.6267V15.891H67.8147C67.0954 15.891 66.4414 15.3025 66.4414 14.5177V9.48231C66.4414 8.76296 67.03 8.10901 67.8147 8.10901H74.5504L75.9891 8.50138Z" fill="#F26F68"/>
<path d="M89.0681 8.10899H82.3324V1.3733C82.3324 0.653951 81.7438 0 80.9591 0H75.9237C75.2043 0 74.5504 0.588556 74.5504 1.3733V8.10899H67.8147C67.0954 8.10899 66.4414 8.69755 66.4414 9.48229V14.5177C66.4414 15.2371 67.03 15.891 67.8147 15.891H74.5504V22.6267C74.5504 23.346 75.1389 24 75.9237 24H80.9591C81.6785 24 82.3324 23.4114 82.3324 22.6267V15.1717C82.3324 14.9755 82.267 14.7793 82.1362 14.6485L75.9891 8.50136V1.43869H80.9591V8.82834C80.9591 9.22071 81.2861 9.54768 81.6785 9.54768H89.0681V14.5177H85.6676C85.2752 14.5177 84.9482 14.8447 84.9482 15.2371C84.9482 15.6294 85.2752 15.9564 85.6676 15.9564H89.0681C89.7874 15.9564 90.4414 15.3678 90.4414 14.5831V9.54768C90.4414 8.69755 89.8528 8.10899 89.0681 8.10899ZM80.9591 15.4332V22.4959H75.9891V15.1717C75.9891 14.7793 75.6621 14.4523 75.2697 14.4523H67.8801V9.48229H75.0082L80.9591 15.4332Z" fill="#CE2029"/>
<path d="M9.80926 6.27787C10.7902 6.86643 11.5749 7.65117 12.1635 8.63209C12.752 9.61302 13.0136 10.7247 13.0136 11.9672C13.0136 13.2097 12.752 14.3215 12.2289 15.3024C11.7057 16.2833 10.9864 17.0681 10.0708 17.6566C9.15531 18.2452 8.10899 18.5067 6.99727 18.5067C6.08174 18.5067 5.23161 18.3106 4.44687 17.9182C3.66212 17.5258 3.00817 17.0027 2.41962 16.3487V22.692C2.41962 23.0844 2.28883 23.346 2.09264 23.5422C1.89646 23.7384 1.56948 23.8691 1.24251 23.8691C0.915531 23.8691 0.588556 23.7384 0.39237 23.5422C0.196185 23.346 0 23.1498 0 22.7574V11.9672C0 10.7247 0.26158 9.61302 0.850136 8.63209C1.43869 7.65117 2.22343 6.86643 3.20436 6.27787C4.18529 5.68931 5.297 5.42773 6.47411 5.42773C7.65122 5.42773 8.82833 5.68931 9.80926 6.27787ZM8.63215 15.8256C9.2861 15.4332 9.74387 14.91 10.1362 14.2561C10.5286 13.6021 10.6594 12.8174 10.6594 12.0326C10.6594 11.1825 10.4632 10.4632 10.1362 9.74381C9.80926 9.02446 9.2861 8.5667 8.63215 8.17433C7.9782 7.78196 7.25885 7.58577 6.47411 7.58577C5.68937 7.58577 4.97003 7.78196 4.31607 8.17433C3.66212 8.5667 3.20436 9.08986 2.81199 9.74381C2.41962 10.3978 2.28883 11.1825 2.28883 12.0326C2.28883 12.8828 2.48501 13.6021 2.81199 14.2561C3.20436 14.91 3.66212 15.4332 4.31607 15.8256C4.97003 16.2179 5.68937 16.4141 6.47411 16.4141C7.25885 16.4141 7.9782 16.2179 8.63215 15.8256Z" fill="#383838"/>
<path d="M17.8526 17.9183C17.3295 17.5259 16.8717 17.0027 16.6101 16.3488C16.2831 15.6948 16.1523 14.9101 16.1523 14.1253V1.17711C16.1523 0.850136 16.2831 0.523161 16.4793 0.326975C16.6755 0.13079 16.9371 0 17.3295 0C17.7218 0 17.9834 0.13079 18.1796 0.326975C18.3758 0.523161 18.5066 0.850136 18.5066 1.17711V14.0599C18.5066 14.6485 18.6374 15.1063 18.8335 15.4986C19.0297 15.891 19.3567 16.0872 19.6837 16.0872H20.2722C20.5992 16.0872 20.8608 16.218 21.057 16.4142C21.2532 16.6104 21.3839 16.9373 21.3839 17.2643C21.3839 17.5913 21.2532 17.9183 20.9262 18.1144C20.5992 18.3106 20.2722 18.4414 19.7491 18.4414H19.6837C18.9643 18.4414 18.3758 18.2452 17.8526 17.9183Z" fill="#383838"/>
<path d="M32.1091 6.27795C33.09 6.86651 33.8748 7.65125 34.4633 8.63217C35.0519 9.6131 35.3135 10.7248 35.3135 11.9673V17.2643C35.3135 17.5913 35.1827 17.9183 34.9865 18.1145C34.7903 18.3107 34.4633 18.4414 34.1364 18.4414C33.8094 18.4414 33.4824 18.3107 33.2862 18.1145C33.09 17.9183 32.9592 17.5913 32.9592 17.2643V16.4142C32.4361 17.0681 31.7167 17.5913 30.932 17.9837C30.1473 18.376 29.2971 18.5722 28.3816 18.5722C27.2699 18.5722 26.2235 18.3107 25.308 17.7221C24.3925 17.1335 23.6731 16.3488 23.15 15.3679C22.6268 14.3869 22.3652 13.2752 22.3652 12.0327C22.3652 10.7902 22.6268 9.6785 23.2154 8.69757C23.8039 7.71664 24.5887 6.9319 25.5696 6.34334C26.5505 5.75479 27.6622 5.49321 28.9047 5.49321C30.0165 5.42781 31.1282 5.68939 32.1091 6.27795ZM30.9974 15.8256C31.6513 15.4333 32.1091 14.9101 32.5015 14.2562C32.8938 13.6022 33.0246 12.8175 33.0246 12.0327C33.0246 11.1826 32.8285 10.4632 32.5015 9.74389C32.1745 9.02454 31.6513 8.56678 30.9974 8.17441C30.3434 7.78204 29.6241 7.58585 28.8393 7.58585C28.0546 7.58585 27.3353 7.78204 26.6813 8.17441C26.0274 8.56678 25.5696 9.08994 25.1772 9.74389C24.7849 10.3978 24.6541 11.1826 24.6541 12.0327C24.6541 12.8829 24.8502 13.6022 25.1772 14.2562C25.5696 14.9101 26.0274 15.4333 26.6813 15.8256C27.3353 16.218 28.0546 16.4142 28.8393 16.4142C29.6241 16.4142 30.3434 16.218 30.9974 15.8256Z" fill="#383838"/>
<path d="M40.6105 18.0491C39.6949 17.7221 38.9102 17.2643 38.387 16.7412C38.1908 16.545 38.0601 16.2834 38.0601 16.0218C38.0601 15.6294 38.1908 15.3679 38.5178 15.1063C38.8448 14.9101 39.1064 14.7793 39.368 14.7793C39.6949 14.7793 39.9565 14.9101 40.2835 15.2371C40.6105 15.564 41.0028 15.8256 41.6568 16.0872C42.2454 16.3488 42.8993 16.4796 43.5533 16.4796C44.4688 16.4796 45.1227 16.3488 45.6459 16.0218C46.1691 15.6948 46.3652 15.3025 46.3652 14.8447C46.3652 14.3869 46.1037 13.9292 45.6459 13.6022C45.1881 13.2752 44.338 13.0136 43.1609 12.8174C40.1527 12.2289 38.6486 10.9864 38.6486 9.08993C38.6486 8.30519 38.8448 7.65124 39.3026 7.12808C39.7603 6.60492 40.3489 6.21254 41.0682 5.95096C41.7876 5.68938 42.5723 5.55859 43.4225 5.55859C44.4688 5.55859 45.3843 5.75478 46.1691 6.08175C46.9538 6.40873 47.6078 6.8665 48.0655 7.45505C48.2617 7.71663 48.3925 7.97821 48.3925 8.23979C48.3925 8.50137 48.2617 8.76295 48.0001 8.95914C47.8039 9.08993 47.6078 9.15532 47.3462 9.15532C46.9538 9.15532 46.5614 9.02453 46.2345 8.69756C45.8421 8.30519 45.4497 8.109 44.992 7.91282C44.5342 7.78203 44.011 7.71663 43.3571 7.71663C42.6377 7.71663 42.0492 7.84742 41.5914 8.109C41.1336 8.37058 40.8721 8.69756 40.8721 9.15532C40.8721 9.4823 40.9374 9.74388 41.1336 9.94006C41.2644 10.1363 41.5914 10.3324 42.0492 10.5286C42.5069 10.7248 43.0955 10.8556 43.9456 11.0518C45.6459 11.3788 46.8884 11.9019 47.6078 12.4905C48.3271 13.079 48.6541 13.9292 48.6541 14.8447C48.6541 15.564 48.4579 16.218 48.0655 16.8066C47.6732 17.3951 47.0846 17.8529 46.2999 18.1798C45.5151 18.5068 44.5996 18.703 43.5533 18.703C42.5723 18.5068 41.526 18.376 40.6105 18.0491Z" fill="#383838"/>
<path d="M57.9402 16.4142C58.1364 16.6104 58.2672 16.9374 58.2672 17.2643C58.2672 17.5913 58.1364 17.9183 57.8748 18.1145C57.6132 18.3107 57.2862 18.4414 56.8939 18.4414H56.4361C55.6514 18.4414 54.932 18.2453 54.3434 17.8529C53.6895 17.4605 53.2317 16.872 52.8394 16.218C52.447 15.4987 52.3162 14.7139 52.3162 13.8638V8.04363H51.2045C50.8775 8.04363 50.6159 7.97823 50.4197 7.78204C50.2236 7.58586 50.0928 7.32428 50.0928 7.0627C50.0928 6.73572 50.2236 6.47414 50.4197 6.27796C50.6159 6.08177 50.8775 6.01638 51.2045 6.01638H52.3162V2.61583C52.3162 2.28886 52.447 1.96188 52.6432 1.7657C52.8394 1.56951 53.1663 1.43872 53.4933 1.43872C53.8203 1.43872 54.1473 1.56951 54.3434 1.7657C54.5396 1.96188 54.6704 2.22346 54.6704 2.61583V6.01638H56.6977C57.0246 6.01638 57.2862 6.08177 57.4824 6.27796C57.6786 6.47414 57.8094 6.73572 57.8094 7.0627C57.8094 7.32428 57.6786 7.58586 57.4824 7.78204C57.2862 7.97823 57.0246 8.04363 56.6977 8.04363H54.6704V13.8638C54.6704 14.5177 54.8666 15.0409 55.1936 15.4333C55.5206 15.8256 55.9783 16.0872 56.4361 16.0872H57.2208C57.5478 16.0872 57.744 16.218 57.9402 16.4142Z" fill="#383838"/>
</svg>
